{
  "source": "C:\\Users\\Peter\\Desktop\\stuff\\MIUN\\quantitative_research\\video_compression\\videos\\BVI-HD\\BVI-HD_CDVL_videos\\ORIG\\Surfers_1920x1080_30fps.mp4",
  "output": "C:\\Users\\Peter\\Desktop\\stuff\\MIUN\\quantitative_research\\video_compression\\compressed_videos\\BVI-HD\\vp9\\4\\Surfers_1920x1080_30fps_vp9.webm",
  "codec": "vp9",
  "ok": "Input #0, mov,mp4,m4a,3gp,3g2,mj2, from 'C:\\Users\\Peter\\Desktop\\stuff\\MIUN\\quantitative_research\\video_compression\\videos\\BVI-HD\\BVI-HD_CDVL_videos\\ORIG\\Surfers_1920x1080_30fps.mp4':\n  Metadata:\n    major_brand     : isom\n    minor_version   : 512\n    compatible_brands: isomiso2avc1mp41\n    encoder         : Lavf54.28.101\n  Duration: 00:00:05.00, start: 0.000000, bitrate: 232762 kb/s\n  Stream #0:0[0x1](und): Video: h264 (High 4:4:4 Predictive) (avc1 / 0x31637661), yuv420p(progressive), 1920x1080, 232759 kb/s, 30 fps, 30 tbr, 30 tbn (default)\n    Metadata:\n      handler_name    : VideoHandler\n      vendor_id       : [0][0][0][0]\n[out#0/webm @ 0000028b0bb71280] Codec AVOption b:a (set bitrate (in bits/s)) has not been used for any stream. The most likely reason is either wrong type (e.g. a video option with no video streams) or that it is a private option of some decoder which was not actually used for any stream.\nStream mapping:\n  Stream #0:0 -> #0:0 (h264 (native) -> vp9 (libvpx-vp9))\nPress [q] to stop, [?] for help\n[libvpx-vp9 @ 0000028b0c1402c0] v1.15.2-100-g40561f514\nOutput #0, webm, to 'C:\\Users\\Peter\\Desktop\\stuff\\MIUN\\quantitative_research\\video_compression\\compressed_videos\\BVI-HD\\vp9\\4\\Surfers_1920x1080_30fps_vp9.webm':\n  Metadata:\n    major_brand     : isom\n    minor_version   : 512\n    compatible_brands: isomiso2avc1mp41\n    encoder         : Lavf62.3.100\n  Stream #0:0(und): Video: vp9, yuv420p(tv, progressive), 1920x1080, q=2-31, 4000 kb/s, 30 fps, 1k tbn (default)\n    Metadata:\n      encoder         : Lavc62.11.100 libvpx-vp9\n      handler_name    : VideoHandler\n      vendor_id       : [0][0][0][0]\n    Side data:\n      cpb: bitrate max/min/avg: 0/0/0 buffer size: 4000000 vbv_delay: N/A\nframe=    0 fps=0.0 q=0.0 size=       0KiB time=N/A bitrate=N/A speed=N/A elapsed=0:00:00.51    \nframe=    4 fps=3.5 q=50.0 size=       1KiB time=00:00:00.13 bitrate=  38.0kbits/s speed=0.118x elapsed=0:00:01.13    \nframe=   10 fps=6.1 q=45.0 size=       1KiB time=00:00:00.33 bitrate=  15.2kbits/s speed=0.202x elapsed=0:00:01.65    \nframe=   14 fps=6.4 q=47.0 size=       1KiB time=00:00:00.46 bitrate=  10.9kbits/s speed=0.214x elapsed=0:00:02.17    \nframe=   18 fps=6.6 q=48.0 size=       1KiB time=00:00:00.60 bitrate=   8.5kbits/s speed=0.221x elapsed=0:00:02.71    \nframe=   22 fps=6.8 q=49.0 size=       1KiB time=00:00:00.73 bitrate=   6.9kbits/s speed=0.227x elapsed=0:00:03.22    \nframe=   27 fps=7.2 q=50.0 size=       1KiB time=00:00:00.90 bitrate=   5.6kbits/s speed=0.24x elapsed=0:00:03.74    \nframe=   31 fps=7.2 q=27.0 size=       1KiB time=00:00:01.03 bitrate=   4.9kbits/s speed=0.24x elapsed=0:00:04.31    \nframe=   36 fps=7.4 q=48.0 size=       1KiB time=00:00:01.20 bitrate=   4.2kbits/s speed=0.247x elapsed=0:00:04.85    \nframe=   40 fps=7.4 q=49.0 size=       1KiB time=00:00:01.33 bitrate=   3.8kbits/s speed=0.247x elapsed=0:00:05.38    \nframe=   44 fps=7.4 q=46.0 size=       1KiB time=00:00:01.46 bitrate=   3.5kbits/s speed=0.248x elapsed=0:00:05.92    \nframe=   48 fps=7.5 q=46.0 size=       1KiB time=00:00:01.60 bitrate=   3.2kbits/s speed=0.248x elapsed=0:00:06.44    \nframe=   53 fps=7.6 q=45.0 size=       1KiB time=00:00:01.76 bitrate=   2.9kbits/s speed=0.253x elapsed=0:00:06.97    \nframe=   57 fps=7.6 q=33.0 size=       1KiB time=00:00:01.90 bitrate=   2.7kbits/s speed=0.253x elapsed=0:00:07.50    \nframe=   61 fps=7.6 q=48.0 size=       1KiB time=00:00:02.03 bitrate=   2.5kbits/s speed=0.253x elapsed=0:00:08.03    \nframe=   66 fps=7.7 q=45.0 size=       1KiB time=00:00:02.20 bitrate=   2.3kbits/s speed=0.257x elapsed=0:00:08.55    \nframe=   70 fps=7.7 q=46.0 size=       1KiB time=00:00:02.33 bitrate=   2.2kbits/s speed=0.257x elapsed=0:00:09.07    \nframe=   74 fps=7.7 q=47.0 size=       1KiB time=00:00:02.46 bitrate=   2.1kbits/s speed=0.257x elapsed=0:00:09.60    \nframe=   79 fps=7.8 q=44.0 size=       1KiB time=00:00:02.63 bitrate=   1.9kbits/s speed=0.26x elapsed=0:00:10.13    \nframe=   83 fps=7.8 q=44.0 size=       1KiB time=00:00:02.76 bitrate=   1.8kbits/s speed=0.259x elapsed=0:00:10.66    \nframe=   86 fps=7.7 q=47.0 size=       1KiB time=00:00:02.86 bitrate=   1.8kbits/s speed=0.256x elapsed=0:00:11.19    \nframe=   90 fps=7.7 q=49.0 size=       1KiB time=00:00:03.00 bitrate=   1.7kbits/s speed=0.256x elapsed=0:00:11.70    \nframe=   94 fps=7.7 q=48.0 size=       1KiB time=00:00:03.13 bitrate=   1.6kbits/s speed=0.256x elapsed=0:00:12.22    \nframe=   98 fps=7.7 q=48.0 size=       1KiB time=00:00:03.26 bitrate=   1.6kbits/s speed=0.256x elapsed=0:00:12.74    \nframe=  102 fps=7.7 q=44.0 size=       1KiB time=00:00:03.40 bitrate=   1.5kbits/s speed=0.256x elapsed=0:00:13.27    \nframe=  106 fps=7.7 q=47.0 size=       1KiB time=00:00:03.53 bitrate=   1.4kbits/s speed=0.256x elapsed=0:00:13.78    \nframe=  109 fps=7.6 q=29.0 size=       1KiB time=00:00:03.63 bitrate=   1.4kbits/s speed=0.254x elapsed=0:00:14.30    \nframe=  114 fps=7.7 q=50.0 size=       1KiB time=00:00:03.80 bitrate=   1.3kbits/s speed=0.256x elapsed=0:00:14.81    \nframe=  118 fps=7.7 q=49.0 size=       1KiB time=00:00:03.93 bitrate=   1.3kbits/s speed=0.257x elapsed=0:00:15.33    \nframe=  122 fps=7.7 q=48.0 size=       1KiB time=00:00:04.06 bitrate=   1.2kbits/s speed=0.256x elapsed=0:00:15.86    \nframe=  126 fps=7.7 q=47.0 size=       1KiB time=00:00:04.20 bitrate=   1.2kbits/s speed=0.256x elapsed=0:00:16.40    \nframe=  126 fps=7.4 q=47.0 size=       1KiB time=00:00:04.20 bitrate=   1.2kbits/s speed=0.248x elapsed=0:00:16.91    \nframe=  126 fps=7.2 q=47.0 size=       1KiB time=00:00:04.20 bitrate=   1.2kbits/s speed=0.241x elapsed=0:00:17.42    \nframe=  126 fps=7.0 q=47.0 size=       1KiB time=00:00:04.20 bitrate=   1.2kbits/s speed=0.234x elapsed=0:00:17.95    \nframe=  126 fps=6.8 q=47.0 size=       1KiB time=00:00:04.20 bitrate=   1.2kbits/s speed=0.227x elapsed=0:00:18.49    \nframe=  126 fps=6.6 q=47.0 size=       1KiB time=00:00:04.20 bitrate=   1.2kbits/s speed=0.221x elapsed=0:00:19.02    \n[out#0/webm @ 0000028b0bb71280] video:2216KiB audio:0KiB subtitle:0KiB other streams:0KiB global headers:0KiB muxing overhead: 0.078127%\nframe=  150 fps=7.7 q=48.0 Lsize=    2218KiB time=00:00:05.00 bitrate=3633.8kbits/s speed=0.257x elapsed=0:00:19.43    \n",
  "seconds": 19.688753366470337,
  "probe_out": {}
}